:FULLY-SPECIFIED
:FORCE-ALL-JOINTS-BE-3DOF
:DEGREES
442
root 1.49742 15.2306 -9.10778 5.3813 4.35439 -13.5438
lfemur -46.1687 16.3526 4.04699
ltibia 62.7263 -0 0
lfoot -25.6536 -10.2858 0.0319626
ltoes -13.0032 0 0
rfemur -14.9657 -3.03255 8.81045
rtibia 38.6102 -0 0
rfoot -14.1288 -13.5382 -0.0182249
rtoes -49.8216 0 0
lowerback 5.933 1.56163 4.49185
upperback 1.00412 2.38713 0.97458
thorax -2.14794 1.1618 -1.69505
lowerneck -7.15838 0.0883557 5.70981
upperneck 0.929344 -0.373908 0.063991
head 1.5015 -0.154155 -0.965074
lclavicle 0 0 0
lhumerus -39.8952 -28.5953 97.7763
lradius 53.9373 -0 0
lwrist 7.92044 0 0
lhand -19.8626 -1.31709 0.0376998
lfingers 0 0 0
lthumb 6.47222 28.5533 0.0359295
rclavicle 0 0 0
rhumerus -48.6263 -2.68023 -89.5126
rradius 66.4298 -0 0
rwrist 12.9172 0 0
rhand -31.6433 -29.2962 0.012882
rfingers 0 0 0
rthumb -4.90432 -59.2167 0.0123049
443
root 1.46652 15.2373 -9.05581 5.37683 6.07534 -13.6811
lfemur -47.055 17.2695 2.89298
ltibia 62.7825 -0 0
lfoot -24.9933 -9.54984 0.0705381
ltoes -11.6261 0 0
rfemur -14.0896 -3.60853 9.17024
rtibia 38.1563 -0 0
rfoot -13.5067 -13.9839 -0.0402168
rtoes -49.9628 0 0
lowerback 5.7376 1.5112 4.68064
upperback 0.957702 2.3247 1.06754
thorax -2.08767 1.131 -1.69589
lowerneck -7.15734 -0.0890669 5.55398
upperneck 0.866845 -0.595624 0.0722902
head 1.47579 -0.266404 -0.941891
lclavicle 0 0 0
lhumerus -40.0897 -28.2005 98.1222
lradius 53.8786 -0 0
lwrist 7.51503 0 0
lhand -20.6613 -2.03458 0.083203
lfingers 0 0 0
lthumb 5.70096 27.8451 0.0792949
rclavicle 0 0 0
rhumerus -48.6877 -2.63113 -89.183
rradius 66.3268 -0 0
rwrist 12.7387 0 0
rhand -31.2478 -28.8005 0.0284254
rfingers 0 0 0
rthumb -4.52237 -58.7264 0.0271521
444
root 1.44335 15.2483 -9.00349 5.36566 8.18199 -13.85
lfemur -48.1722 18.3682 1.45215
ltibia 62.8514 -0 0
lfoot -24.1844 -8.6484 0.106205
ltoes -9.9402 0 0
rfemur -13.0212 -4.32097 9.59894
rtibia 37.6007 -0 0
rfoot -12.7449 -14.5297 -0.0605471
rtoes -50.1355 0 0
lowerback 5.4982 1.45036 4.91197
upperback 0.900747 2.24838 1.1814
thorax -2.01389 1.0933 -1.69696
lowerneck -7.15541 -0.306252 5.36323
upperneck 0.790289 -0.867024 0.0827794
head 1.44425 -0.403798 -0.913443
lclavicle 0 0 0
lhumerus -40.3232 -27.7159 98.5419
lradius 53.8067 -0 0
lwrist 7.01876 0 0
lhand -21.6396 -2.91365 0.125279
lfingers 0 0 0
lthumb 4.7562 26.9776 0.119393
rclavicle 0 0 0
rhumerus -48.7624 -2.57054 -88.7796
rradius 66.2008 -0 0
rwrist 12.5201 0 0
rhand -30.7635 -28.1936 0.0427934
rfingers 0 0 0
rthumb -4.05466 -58.1261 0.0408762
445
root 1.42686 15.2622 -8.95219 5.34557 10.5408 -14.0409
lfemur -49.4662 19.5658 -0.198963
ltibia 62.9285 -0 0
lfoot -23.2781 -7.63857 0.131031
ltoes -8.0525 0 0
rfemur -11.8299 -5.12798 10.0636
rtibia 36.9785 -0 0
rfoot -11.8918 -15.1412 -0.0746955
rtoes -50.329 0 0
lowerback 5.22985 1.38337 5.17129
upperback 0.836797 2.16306 1.30897
thorax -1.93128 1.05109 -1.69822
lowerneck -7.15238 -0.549429 5.14963
upperneck 0.704501 -1.1709 0.0949557
head 1.40885 -0.557622 -0.881499
lclavicle 0 0 0
lhumerus -40.5787 -27.1714 99.0071
lradius 53.7262 -0 0
lwrist 6.46307 0 0
lhand -22.7357 -3.89865 0.154567
lfingers 0 0 0
lthumb 3.69774 26.0055 0.147303
rclavicle 0 0 0
rhumerus -48.8455 -2.50208 -88.3281
rradius 66.0596 -0 0
rwrist 12.2753 0 0
rhand -30.2211 -27.5139 0.0527917
rfingers 0 0 0
rthumb -3.53081 -57.4538 0.0504264
446
root 1.416 15.278 -8.90329 5.31561 13.0182 -14.2441
lfemur -50.875 20.7846 -1.97732
ltibia 63.0095 -0 0
lfoot -22.3259 -6.57764 0.1399
ltoes -6.06983 0 0
rfemur -10.5841 -5.98575 10.534
rtibia 36.3251 -0 0
rfoot -10.9956 -15.7836 -0.0797497
rtoes -50.5321 0 0
lowerback 4.94768 1.31432 5.44399
upperback 0.769429 2.0736 1.44305
thorax -1.84451 1.00676 -1.69961
lowerneck -7.14823 -0.804827 4.92525
upperneck 0.614316 -1.49004 0.108236
head 1.37158 -0.719165 -0.847844
lclavicle 0 0 0
lhumerus -40.8404 -26.5977 99.4903
lradius 53.6417 -0 0
lwrist 5.87942 0 0
lhand -23.8873 -4.93361 0.16503
lfingers 0 0 0
lthumb 2.58568 24.9842 0.157275
rclavicle 0 0 0
rhumerus -48.9323 -2.42947 -87.8539
rradius 65.9113 -0 0
rwrist 12.0183 0 0
rhand -29.6513 -26.7999 0.0563633
rfingers 0 0 0
rthumb -2.98053 -56.7476 0.053838
447
root 1.4097 15.2945 -8.85816 5.27647 15.4807 -14.4496
lfemur -52.3266 21.9544 -3.79097
ltibia 63.09 -0 0
lfoot -21.3794 -5.52306 0.131241
ltoes -4.09903 0 0
rfemur -9.35076 -6.84825 10.9836
rtibia 35.6756 -0 0
rfoot -10.1048 -16.4222 -0.0748154
rtoes -50.7341 0 0
lowerback 4.66689 1.24702 5.71538
upperback 0.702261 1.98483 1.57643
thorax -1.75826 0.962692 -1.70105
lowerneck -7.14312 -1.05868 4.70218
upperneck 0.524583 -1.80725 0.121938
head 1.33443 -0.879718 -0.814286
lclavicle 0 0 0
lhumerus -41.0939 -26.0254 99.9653
lradius 53.5576 -0 0
lwrist 5.29926 0 0
lhand -25.0319 -5.96238 0.154815
lfingers 0 0 0
lthumb 1.48029 23.9689 0.14754
rclavicle 0 0 0
rhumerus -49.0179 -2.35658 -87.3828
rradius 65.764 -0 0
rwrist 11.7627 0 0
rhand -29.0849 -26.0902 0.0528765
rfingers 0 0 0
rthumb -2.43354 -56.0457 0.0505074
448
root 1.40691 15.3105 -8.81816 5.23077 17.7946 -14.6468
lfemur -53.7378 23.0137 -5.53796
ltibia 63.1657 -0 0
lfoot -20.4902 -4.53227 0.107229
ltoes -2.24696 0 0
rfemur -8.19577 -7.66736 11.3898
rtibia 35.0652 -0 0
rfoot -9.26771 -17.0221 -0.0611307
rtoes -50.9239 0 0
lowerback 4.40273 1.18499 5.97071
upperback 0.638954 1.90155 1.70186
thorax -1.67721 0.921282 -1.70247
lowerneck -7.13741 -1.29722 4.49251
upperneck 0.440172 -2.10533 0.135269
head 1.29944 -1.03058 -0.782653
lclavicle 0 0 0
lhumerus -41.3262 -25.4859 100.407
lradius 53.4786 -0 0
lwrist 4.75406 0 0
lhand -26.1074 -6.9288 0.126487
lfingers 0 0 0
lthumb 0.441792 23.0152 0.120544
rclavicle 0 0 0
rhumerus -49.0978 -2.28745 -86.9401
rradius 65.6255 -0 0
rwrist 11.5226 0 0
rhand -28.5527 -25.4234 0.0432058
rfingers 0 0 0
rthumb -1.91957 -55.3861 0.0412701
449
root 1.40657 15.325 -8.78466 5.18314 19.8266 -14.8238
lfemur -55.0149 23.9105 -7.10668
ltibia 63.2321 -0 0
lfoot -19.7097 -3.66255 0.0734664
ltoes -0.620453 0 0
rfemur -7.18439 -8.39328 11.7334
rtibia 34.5291 -0 0
rfoot -8.53276 -17.5488 -0.041886
rtoes -51.0906 0 0
lowerback 4.17052 1.13148 6.19517
upperback 0.583209 1.82853 1.81209
thorax -1.60602 0.884917 -1.70377
lowerneck -7.13167 -1.50668 4.30834
upperneck 0.365969 -2.36709 0.147342
head 1.26864 -1.16305 -0.754795
lclavicle 0 0 0
lhumerus -41.5256 -25.0109 100.791
lradius 53.4093 -0 0
lwrist 4.27526 0 0
lhand -27.0513 -7.77695 0.0866573
lfingers 0 0 0
lthumb -0.469741 22.1781 0.0825869
rclavicle 0 0 0
rhumerus -49.1675 -2.22623 -86.5515
rradius 65.5039 -0 0
rwrist 11.3117 0 0
rhand -28.0854 -24.8378 0.0296052
rfingers 0 0 0
rthumb -1.46832 -54.8069 0.0282789
